<mxfile host="Electron" modified="2023-06-05T13:30:59.480Z" agent="Mozilla/5.0 (Windows NT 10.0; Win64; x64) AppleWebKit/537.36 (KHTML, like Gecko) draw.io/21.2.8 Chrome/112.0.5615.165 Electron/24.2.0 Safari/537.36" etag="pVdt24rFoeGTFb0jI8x-" version="21.2.8" type="device">
  <diagram id="C5RBs43oDa-KdzZeNtuy" name="Page-1">
    <mxGraphModel dx="5111" dy="1047" grid="1" gridSize="10" guides="1" tooltips="1" connect="1" arrows="1" fold="1" page="1" pageScale="1" pageWidth="827" pageHeight="1169" math="0" shadow="0">
      <root>
        <mxCell id="WIyWlLk6GJQsqaUBKTNV-0" />
        <mxCell id="WIyWlLk6GJQsqaUBKTNV-1" parent="WIyWlLk6GJQsqaUBKTNV-0" />
        <mxCell id="Jr1QqVv22chqqM5n_32c-0" value="ECurrentState.Removed" style="rounded=1;whiteSpace=wrap;html=1;fillColor=#dae8fc;strokeColor=#6c8ebf;" vertex="1" parent="WIyWlLk6GJQsqaUBKTNV-1">
          <mxGeometry x="-1170" y="2460" width="150" height="30" as="geometry" />
        </mxCell>
        <mxCell id="Jr1QqVv22chqqM5n_32c-1" value="ECurrentState.Unloaded" style="rounded=1;whiteSpace=wrap;html=1;fillColor=#dae8fc;strokeColor=#6c8ebf;" vertex="1" parent="WIyWlLk6GJQsqaUBKTNV-1">
          <mxGeometry x="-977" y="2460" width="150" height="30" as="geometry" />
        </mxCell>
        <mxCell id="Jr1QqVv22chqqM5n_32c-2" value="ECurrentState.FailedToLoad" style="rounded=1;whiteSpace=wrap;html=1;fillColor=#dae8fc;strokeColor=#6c8ebf;" vertex="1" parent="WIyWlLk6GJQsqaUBKTNV-1">
          <mxGeometry x="-1570" y="2460" width="210" height="30" as="geometry" />
        </mxCell>
        <mxCell id="Jr1QqVv22chqqM5n_32c-4" value="ECurrentState.LoadedNotVisible" style="rounded=1;whiteSpace=wrap;html=1;fillColor=#dae8fc;strokeColor=#6c8ebf;" vertex="1" parent="WIyWlLk6GJQsqaUBKTNV-1">
          <mxGeometry x="-1735" y="3020" width="210" height="30" as="geometry" />
        </mxCell>
        <mxCell id="Jr1QqVv22chqqM5n_32c-8" style="edgeStyle=orthogonalEdgeStyle;rounded=0;orthogonalLoop=1;jettySize=auto;html=1;exitX=0.5;exitY=1;exitDx=0;exitDy=0;entryX=0.5;entryY=0;entryDx=0;entryDy=0;" edge="1" parent="WIyWlLk6GJQsqaUBKTNV-1" source="Jr1QqVv22chqqM5n_32c-5" target="Jr1QqVv22chqqM5n_32c-9">
          <mxGeometry relative="1" as="geometry" />
        </mxCell>
        <mxCell id="Jr1QqVv22chqqM5n_32c-5" value="ECurrentState.MakingVisible" style="rounded=1;whiteSpace=wrap;html=1;fillColor=#dae8fc;strokeColor=#6c8ebf;" vertex="1" parent="WIyWlLk6GJQsqaUBKTNV-1">
          <mxGeometry x="-610" y="1000" width="210" height="30" as="geometry" />
        </mxCell>
        <mxCell id="Jr1QqVv22chqqM5n_32c-6" value="ECurrentState.LoadedVisible" style="rounded=1;whiteSpace=wrap;html=1;fillColor=#dae8fc;strokeColor=#6c8ebf;" vertex="1" parent="WIyWlLk6GJQsqaUBKTNV-1">
          <mxGeometry x="-610" y="1360" width="210" height="30" as="geometry" />
        </mxCell>
        <mxCell id="Jr1QqVv22chqqM5n_32c-31" style="edgeStyle=none;rounded=0;orthogonalLoop=1;jettySize=auto;html=1;exitX=0.5;exitY=1;exitDx=0;exitDy=0;entryX=0.5;entryY=0;entryDx=0;entryDy=0;" edge="1" parent="WIyWlLk6GJQsqaUBKTNV-1" source="Jr1QqVv22chqqM5n_32c-32" target="Jr1QqVv22chqqM5n_32c-42">
          <mxGeometry relative="1" as="geometry" />
        </mxCell>
        <mxCell id="Jr1QqVv22chqqM5n_32c-37" style="edgeStyle=none;rounded=0;orthogonalLoop=1;jettySize=auto;html=1;exitX=0.5;exitY=1;exitDx=0;exitDy=0;entryX=0.5;entryY=0;entryDx=0;entryDy=0;" edge="1" parent="WIyWlLk6GJQsqaUBKTNV-1" source="Jr1QqVv22chqqM5n_32c-7" target="Jr1QqVv22chqqM5n_32c-32">
          <mxGeometry relative="1" as="geometry" />
        </mxCell>
        <mxCell id="Jr1QqVv22chqqM5n_32c-7" value="ECurrentState.MakingInvisible" style="rounded=1;whiteSpace=wrap;html=1;fillColor=#dae8fc;strokeColor=#6c8ebf;" vertex="1" parent="WIyWlLk6GJQsqaUBKTNV-1">
          <mxGeometry x="-1210" y="2730" width="210" height="30" as="geometry" />
        </mxCell>
        <mxCell id="Jr1QqVv22chqqM5n_32c-9" value="LoadedLevel" style="rhombus;whiteSpace=wrap;html=1;" vertex="1" parent="WIyWlLk6GJQsqaUBKTNV-1">
          <mxGeometry x="-560" y="1065" width="110" height="60" as="geometry" />
        </mxCell>
        <mxCell id="Jr1QqVv22chqqM5n_32c-14" style="edgeStyle=orthogonalEdgeStyle;rounded=0;orthogonalLoop=1;jettySize=auto;html=1;exitX=0.5;exitY=1;exitDx=0;exitDy=0;entryX=0.5;entryY=0;entryDx=0;entryDy=0;" edge="1" parent="WIyWlLk6GJQsqaUBKTNV-1" source="Jr1QqVv22chqqM5n_32c-11" target="Jr1QqVv22chqqM5n_32c-12">
          <mxGeometry relative="1" as="geometry" />
        </mxCell>
        <mxCell id="Jr1QqVv22chqqM5n_32c-11" value="ULevelStreaming::UpdateStreamingState" style="rounded=1;whiteSpace=wrap;html=1;fillColor=#fff2cc;strokeColor=#d6b656;" vertex="1" parent="WIyWlLk6GJQsqaUBKTNV-1">
          <mxGeometry x="-650" y="620" width="290" height="30" as="geometry" />
        </mxCell>
        <mxCell id="Jr1QqVv22chqqM5n_32c-15" style="edgeStyle=orthogonalEdgeStyle;rounded=0;orthogonalLoop=1;jettySize=auto;html=1;exitX=0.5;exitY=1;exitDx=0;exitDy=0;" edge="1" parent="WIyWlLk6GJQsqaUBKTNV-1" source="Jr1QqVv22chqqM5n_32c-12" target="Jr1QqVv22chqqM5n_32c-13">
          <mxGeometry relative="1" as="geometry" />
        </mxCell>
        <mxCell id="Jr1QqVv22chqqM5n_32c-12" value="bOutUpdateAgain = false;" style="rounded=1;whiteSpace=wrap;html=1;fillColor=#d5e8d4;strokeColor=#82b366;" vertex="1" parent="WIyWlLk6GJQsqaUBKTNV-1">
          <mxGeometry x="-610" y="700" width="210" height="30" as="geometry" />
        </mxCell>
        <mxCell id="Jr1QqVv22chqqM5n_32c-16" style="edgeStyle=orthogonalEdgeStyle;rounded=0;orthogonalLoop=1;jettySize=auto;html=1;exitX=0.5;exitY=1;exitDx=0;exitDy=0;" edge="1" parent="WIyWlLk6GJQsqaUBKTNV-1" source="Jr1QqVv22chqqM5n_32c-13">
          <mxGeometry relative="1" as="geometry">
            <mxPoint x="-505.1428571428571" y="840" as="targetPoint" />
          </mxGeometry>
        </mxCell>
        <mxCell id="Jr1QqVv22chqqM5n_32c-13" value="bOutRedetermineTarget = false;" style="rounded=1;whiteSpace=wrap;html=1;fillColor=#d5e8d4;strokeColor=#82b366;" vertex="1" parent="WIyWlLk6GJQsqaUBKTNV-1">
          <mxGeometry x="-610" y="770" width="210" height="30" as="geometry" />
        </mxCell>
        <mxCell id="Jr1QqVv22chqqM5n_32c-18" style="edgeStyle=orthogonalEdgeStyle;rounded=0;orthogonalLoop=1;jettySize=auto;html=1;exitX=0.5;exitY=1;exitDx=0;exitDy=0;entryX=0.5;entryY=0;entryDx=0;entryDy=0;" edge="1" parent="WIyWlLk6GJQsqaUBKTNV-1" source="Jr1QqVv22chqqM5n_32c-17" target="Jr1QqVv22chqqM5n_32c-5">
          <mxGeometry relative="1" as="geometry" />
        </mxCell>
        <mxCell id="Jr1QqVv22chqqM5n_32c-17" value="根据CurrentState进行switch" style="rounded=1;whiteSpace=wrap;html=1;fillColor=#d5e8d4;strokeColor=#82b366;" vertex="1" parent="WIyWlLk6GJQsqaUBKTNV-1">
          <mxGeometry x="-610" y="840" width="210" height="30" as="geometry" />
        </mxCell>
        <mxCell id="Jr1QqVv22chqqM5n_32c-19" value="根据CurrentState进行switch" style="rounded=1;whiteSpace=wrap;html=1;fillColor=#d5e8d4;strokeColor=#82b366;" vertex="1" parent="WIyWlLk6GJQsqaUBKTNV-1">
          <mxGeometry x="-1010" y="1010" width="210" height="30" as="geometry" />
        </mxCell>
        <mxCell id="Jr1QqVv22chqqM5n_32c-20" value="根据CurrentState进行switch" style="rounded=1;whiteSpace=wrap;html=1;fillColor=#d5e8d4;strokeColor=#82b366;" vertex="1" parent="WIyWlLk6GJQsqaUBKTNV-1">
          <mxGeometry x="-1010" y="1040" width="210" height="30" as="geometry" />
        </mxCell>
        <mxCell id="Jr1QqVv22chqqM5n_32c-21" value="根据CurrentState进行switch" style="rounded=1;whiteSpace=wrap;html=1;fillColor=#d5e8d4;strokeColor=#82b366;" vertex="1" parent="WIyWlLk6GJQsqaUBKTNV-1">
          <mxGeometry x="-1010" y="1070" width="210" height="30" as="geometry" />
        </mxCell>
        <mxCell id="Jr1QqVv22chqqM5n_32c-22" value="World-&amp;gt;AddToWorld(LoadedLevel, LevelTransform, !bShouldBlockOnLoad);" style="rounded=1;whiteSpace=wrap;html=1;fillColor=#d5e8d4;strokeColor=#82b366;" vertex="1" parent="WIyWlLk6GJQsqaUBKTNV-1">
          <mxGeometry x="-720" y="1180" width="430" height="30" as="geometry" />
        </mxCell>
        <mxCell id="Jr1QqVv22chqqM5n_32c-23" value="LoadedLevel-&amp;gt;bIsVisible" style="rhombus;whiteSpace=wrap;html=1;" vertex="1" parent="WIyWlLk6GJQsqaUBKTNV-1">
          <mxGeometry x="-600" y="1250" width="190" height="60" as="geometry" />
        </mxCell>
        <mxCell id="Jr1QqVv22chqqM5n_32c-24" style="edgeStyle=orthogonalEdgeStyle;rounded=0;orthogonalLoop=1;jettySize=auto;html=1;exitX=0.5;exitY=1;exitDx=0;exitDy=0;" edge="1" parent="WIyWlLk6GJQsqaUBKTNV-1" source="Jr1QqVv22chqqM5n_32c-25" target="Jr1QqVv22chqqM5n_32c-26">
          <mxGeometry relative="1" as="geometry" />
        </mxCell>
        <mxCell id="Jr1QqVv22chqqM5n_32c-25" value="bOutUpdateAgain = false;" style="rounded=1;whiteSpace=wrap;html=1;fillColor=#d5e8d4;strokeColor=#82b366;" vertex="1" parent="WIyWlLk6GJQsqaUBKTNV-1">
          <mxGeometry x="-610" y="1510" width="210" height="30" as="geometry" />
        </mxCell>
        <mxCell id="Jr1QqVv22chqqM5n_32c-26" value="bOutRedetermineTarget = false;" style="rounded=1;whiteSpace=wrap;html=1;fillColor=#d5e8d4;strokeColor=#82b366;" vertex="1" parent="WIyWlLk6GJQsqaUBKTNV-1">
          <mxGeometry x="-610" y="1580" width="210" height="30" as="geometry" />
        </mxCell>
        <mxCell id="Jr1QqVv22chqqM5n_32c-27" value="World-&amp;gt;Scene" style="rhombus;whiteSpace=wrap;html=1;" vertex="1" parent="WIyWlLk6GJQsqaUBKTNV-1">
          <mxGeometry x="-600" y="1430" width="190" height="60" as="geometry" />
        </mxCell>
        <mxCell id="Jr1QqVv22chqqM5n_32c-35" style="edgeStyle=none;rounded=0;orthogonalLoop=1;jettySize=auto;html=1;exitX=0.5;exitY=1;exitDx=0;exitDy=0;" edge="1" parent="WIyWlLk6GJQsqaUBKTNV-1" source="Jr1QqVv22chqqM5n_32c-28" target="Jr1QqVv22chqqM5n_32c-38">
          <mxGeometry relative="1" as="geometry" />
        </mxCell>
        <mxCell id="Jr1QqVv22chqqM5n_32c-28" value="ECurrentState.MakingVisible" style="rounded=1;whiteSpace=wrap;html=1;fillColor=#dae8fc;strokeColor=#6c8ebf;" vertex="1" parent="WIyWlLk6GJQsqaUBKTNV-1">
          <mxGeometry x="-1735" y="2750" width="210" height="30" as="geometry" />
        </mxCell>
        <mxCell id="Jr1QqVv22chqqM5n_32c-29" value="ECurrentState.LoadedVisible" style="rounded=1;whiteSpace=wrap;html=1;fillColor=#dae8fc;strokeColor=#6c8ebf;" vertex="1" parent="WIyWlLk6GJQsqaUBKTNV-1">
          <mxGeometry x="-1210" y="3000" width="210" height="30" as="geometry" />
        </mxCell>
        <mxCell id="Jr1QqVv22chqqM5n_32c-32" value="World-&amp;gt;AddToWorld(LoadedLevel, LevelTransform, !bShouldBlockOnLoad);" style="rounded=1;whiteSpace=wrap;html=1;fillColor=#d5e8d4;strokeColor=#82b366;" vertex="1" parent="WIyWlLk6GJQsqaUBKTNV-1">
          <mxGeometry x="-1320" y="2820" width="430" height="30" as="geometry" />
        </mxCell>
        <mxCell id="Jr1QqVv22chqqM5n_32c-39" style="edgeStyle=none;rounded=0;orthogonalLoop=1;jettySize=auto;html=1;exitX=0.5;exitY=1;exitDx=0;exitDy=0;" edge="1" parent="WIyWlLk6GJQsqaUBKTNV-1" source="Jr1QqVv22chqqM5n_32c-41" target="Jr1QqVv22chqqM5n_32c-4">
          <mxGeometry relative="1" as="geometry">
            <mxPoint x="-1630" y="3009.9999999999995" as="sourcePoint" />
          </mxGeometry>
        </mxCell>
        <mxCell id="Jr1QqVv22chqqM5n_32c-38" value="World-&amp;gt;RemoveFromWorld(LoadedLevel, !bShouldBlockOnUnload &amp;amp;&amp;amp; World-&amp;gt;IsGameWorld());" style="rounded=1;whiteSpace=wrap;html=1;fillColor=#d5e8d4;strokeColor=#82b366;" vertex="1" parent="WIyWlLk6GJQsqaUBKTNV-1">
          <mxGeometry x="-1900" y="2820" width="540" height="30" as="geometry" />
        </mxCell>
        <mxCell id="Jr1QqVv22chqqM5n_32c-40" value="" style="edgeStyle=none;rounded=0;orthogonalLoop=1;jettySize=auto;html=1;exitX=0.5;exitY=1;exitDx=0;exitDy=0;entryX=0.5;entryY=0;entryDx=0;entryDy=0;" edge="1" parent="WIyWlLk6GJQsqaUBKTNV-1" source="Jr1QqVv22chqqM5n_32c-38" target="Jr1QqVv22chqqM5n_32c-41">
          <mxGeometry relative="1" as="geometry">
            <mxPoint x="-1630" y="2910" as="sourcePoint" />
            <mxPoint x="-1630" y="2979.9999999999995" as="targetPoint" />
          </mxGeometry>
        </mxCell>
        <mxCell id="Jr1QqVv22chqqM5n_32c-41" value="!LoadedLevel-&amp;gt;bIsVisible" style="rhombus;whiteSpace=wrap;html=1;fillColor=#e1d5e7;strokeColor=#9673a6;" vertex="1" parent="WIyWlLk6GJQsqaUBKTNV-1">
          <mxGeometry x="-1727.5" y="2900" width="195" height="60" as="geometry" />
        </mxCell>
        <mxCell id="Jr1QqVv22chqqM5n_32c-43" style="edgeStyle=none;rounded=0;orthogonalLoop=1;jettySize=auto;html=1;exitX=0.5;exitY=1;exitDx=0;exitDy=0;entryX=0.5;entryY=0;entryDx=0;entryDy=0;" edge="1" parent="WIyWlLk6GJQsqaUBKTNV-1" source="Jr1QqVv22chqqM5n_32c-42" target="Jr1QqVv22chqqM5n_32c-29">
          <mxGeometry relative="1" as="geometry" />
        </mxCell>
        <mxCell id="Jr1QqVv22chqqM5n_32c-42" value="LoadedLevel-&amp;gt;bIsVisible" style="rhombus;whiteSpace=wrap;html=1;fillColor=#e1d5e7;strokeColor=#9673a6;" vertex="1" parent="WIyWlLk6GJQsqaUBKTNV-1">
          <mxGeometry x="-1202.5" y="2900" width="195" height="60" as="geometry" />
        </mxCell>
        <mxCell id="Jr1QqVv22chqqM5n_32c-57" style="edgeStyle=none;rounded=0;orthogonalLoop=1;jettySize=auto;html=1;exitX=0.5;exitY=1;exitDx=0;exitDy=0;entryX=0.5;entryY=0;entryDx=0;entryDy=0;" edge="1" parent="WIyWlLk6GJQsqaUBKTNV-1" source="Jr1QqVv22chqqM5n_32c-58" target="Jr1QqVv22chqqM5n_32c-61">
          <mxGeometry relative="1" as="geometry" />
        </mxCell>
        <mxCell id="Jr1QqVv22chqqM5n_32c-58" value="ULevelStreaming::SetShouldBeLoaded(true)" style="rounded=1;whiteSpace=wrap;html=1;fillColor=#ffe6cc;strokeColor=#d79b00;" vertex="1" parent="WIyWlLk6GJQsqaUBKTNV-1">
          <mxGeometry x="700" y="2745" width="280" height="30" as="geometry" />
        </mxCell>
        <mxCell id="Jr1QqVv22chqqM5n_32c-59" style="edgeStyle=none;rounded=0;orthogonalLoop=1;jettySize=auto;html=1;exitX=0.5;exitY=1;exitDx=0;exitDy=0;" edge="1" parent="WIyWlLk6GJQsqaUBKTNV-1" source="Jr1QqVv22chqqM5n_32c-60" target="Jr1QqVv22chqqM5n_32c-58">
          <mxGeometry relative="1" as="geometry" />
        </mxCell>
        <mxCell id="Jr1QqVv22chqqM5n_32c-60" value="期望StreamingLevel加载" style="rounded=1;whiteSpace=wrap;html=1;fillColor=#fff2cc;strokeColor=#d6b656;" vertex="1" parent="WIyWlLk6GJQsqaUBKTNV-1">
          <mxGeometry x="725.5" y="2685" width="229" height="30" as="geometry" />
        </mxCell>
        <mxCell id="Jr1QqVv22chqqM5n_32c-61" value="放入UWorld.StreamingLevelsToConsider 中" style="rounded=1;whiteSpace=wrap;html=1;fillColor=#fff2cc;strokeColor=#d6b656;" vertex="1" parent="WIyWlLk6GJQsqaUBKTNV-1">
          <mxGeometry x="717.75" y="2810" width="244.5" height="30" as="geometry" />
        </mxCell>
        <mxCell id="Jr1QqVv22chqqM5n_32c-62" value="在tick时候检测" style="rounded=1;whiteSpace=wrap;html=1;fillColor=#fff2cc;strokeColor=#d6b656;" vertex="1" parent="WIyWlLk6GJQsqaUBKTNV-1">
          <mxGeometry x="725.5" y="2880" width="244.5" height="30" as="geometry" />
        </mxCell>
        <mxCell id="Jr1QqVv22chqqM5n_32c-66" style="edgeStyle=none;rounded=0;orthogonalLoop=1;jettySize=auto;html=1;exitX=0.5;exitY=1;exitDx=0;exitDy=0;entryX=0.5;entryY=0;entryDx=0;entryDy=0;" edge="1" parent="WIyWlLk6GJQsqaUBKTNV-1" source="Jr1QqVv22chqqM5n_32c-67" target="Jr1QqVv22chqqM5n_32c-69">
          <mxGeometry relative="1" as="geometry" />
        </mxCell>
        <mxCell id="Jr1QqVv22chqqM5n_32c-67" value="ECurrentState::Loading" style="rounded=1;whiteSpace=wrap;html=1;fillColor=#dae8fc;strokeColor=#6c8ebf;" vertex="1" parent="WIyWlLk6GJQsqaUBKTNV-1">
          <mxGeometry x="-800" y="2730" width="210" height="30" as="geometry" />
        </mxCell>
        <mxCell id="Jr1QqVv22chqqM5n_32c-69" value="Waiting" style="rounded=1;whiteSpace=wrap;html=1;fillColor=#d5e8d4;strokeColor=#82b366;" vertex="1" parent="WIyWlLk6GJQsqaUBKTNV-1">
          <mxGeometry x="-755" y="2800" width="120" height="30" as="geometry" />
        </mxCell>
        <mxCell id="Jr1QqVv22chqqM5n_32c-78" value="" style="group" vertex="1" connectable="0" parent="WIyWlLk6GJQsqaUBKTNV-1">
          <mxGeometry x="-2680" y="2510" width="250" height="140" as="geometry" />
        </mxCell>
        <mxCell id="Jr1QqVv22chqqM5n_32c-49" value="异步加载StreamingLevel" style="rounded=0;whiteSpace=wrap;html=1;fillColor=#f5f5f5;strokeColor=#666666;fontColor=#333333;verticalAlign=top;" vertex="1" parent="Jr1QqVv22chqqM5n_32c-78">
          <mxGeometry width="250" height="140" as="geometry" />
        </mxCell>
        <mxCell id="Jr1QqVv22chqqM5n_32c-3" value="CurrentState = ECurrentState::Loading;" style="rounded=1;whiteSpace=wrap;html=1;fillColor=#f8cecc;strokeColor=#b85450;" vertex="1" parent="Jr1QqVv22chqqM5n_32c-78">
          <mxGeometry x="10" y="95" width="230.5" height="30" as="geometry" />
        </mxCell>
        <mxCell id="Jr1QqVv22chqqM5n_32c-46" style="edgeStyle=none;rounded=0;orthogonalLoop=1;jettySize=auto;html=1;exitX=0.5;exitY=1;exitDx=0;exitDy=0;" edge="1" parent="Jr1QqVv22chqqM5n_32c-78" source="Jr1QqVv22chqqM5n_32c-45" target="Jr1QqVv22chqqM5n_32c-3">
          <mxGeometry relative="1" as="geometry" />
        </mxCell>
        <mxCell id="Jr1QqVv22chqqM5n_32c-45" value="ULevelStreaming::RequestLevel" style="rounded=1;whiteSpace=wrap;html=1;fillColor=#ffe6cc;strokeColor=#d79b00;" vertex="1" parent="Jr1QqVv22chqqM5n_32c-78">
          <mxGeometry x="10" y="35" width="229" height="30" as="geometry" />
        </mxCell>
        <mxCell id="Jr1QqVv22chqqM5n_32c-87" value="" style="group" vertex="1" connectable="0" parent="WIyWlLk6GJQsqaUBKTNV-1">
          <mxGeometry x="-2180" y="2480" width="300" height="180" as="geometry" />
        </mxCell>
        <mxCell id="Jr1QqVv22chqqM5n_32c-74" value="异步加载完成后回调" style="rounded=0;whiteSpace=wrap;html=1;fillColor=#f5f5f5;strokeColor=#666666;fontColor=#333333;verticalAlign=top;" vertex="1" parent="Jr1QqVv22chqqM5n_32c-87">
          <mxGeometry width="300" height="180" as="geometry" />
        </mxCell>
        <mxCell id="Jr1QqVv22chqqM5n_32c-48" value="ULevelStreaming::AsyncLevelLoadComplete" style="rounded=1;whiteSpace=wrap;html=1;fillColor=#ffe6cc;strokeColor=#d79b00;" vertex="1" parent="Jr1QqVv22chqqM5n_32c-87">
          <mxGeometry x="10" y="40" width="280" height="30" as="geometry" />
        </mxCell>
        <mxCell id="Jr1QqVv22chqqM5n_32c-54" value="添加到UWorld.Levels中" style="rounded=1;whiteSpace=wrap;html=1;fillColor=#fff2cc;strokeColor=#d6b656;" vertex="1" parent="Jr1QqVv22chqqM5n_32c-87">
          <mxGeometry x="35.5" y="90" width="229" height="30" as="geometry" />
        </mxCell>
        <mxCell id="Jr1QqVv22chqqM5n_32c-55" style="edgeStyle=none;rounded=0;orthogonalLoop=1;jettySize=auto;html=1;exitX=0.5;exitY=1;exitDx=0;exitDy=0;entryX=0.5;entryY=0;entryDx=0;entryDy=0;" edge="1" parent="Jr1QqVv22chqqM5n_32c-87" source="Jr1QqVv22chqqM5n_32c-48" target="Jr1QqVv22chqqM5n_32c-54">
          <mxGeometry relative="1" as="geometry" />
        </mxCell>
        <mxCell id="Jr1QqVv22chqqM5n_32c-63" value="CurrentState = ECurrentState::LoadedNotVisible;" style="rounded=1;whiteSpace=wrap;html=1;fillColor=#f8cecc;strokeColor=#b85450;" vertex="1" parent="Jr1QqVv22chqqM5n_32c-87">
          <mxGeometry x="10" y="140" width="280" height="30" as="geometry" />
        </mxCell>
        <mxCell id="Jr1QqVv22chqqM5n_32c-64" style="edgeStyle=none;rounded=0;orthogonalLoop=1;jettySize=auto;html=1;exitX=0.5;exitY=1;exitDx=0;exitDy=0;" edge="1" parent="Jr1QqVv22chqqM5n_32c-87" source="Jr1QqVv22chqqM5n_32c-54" target="Jr1QqVv22chqqM5n_32c-63">
          <mxGeometry relative="1" as="geometry" />
        </mxCell>
        <mxCell id="Jr1QqVv22chqqM5n_32c-88" value="ECurrentState::LoadedNotVisible" style="rounded=1;whiteSpace=wrap;html=1;fillColor=#dae8fc;strokeColor=#6c8ebf;" vertex="1" parent="WIyWlLk6GJQsqaUBKTNV-1">
          <mxGeometry x="-2390" y="2800" width="210" height="30" as="geometry" />
        </mxCell>
      </root>
    </mxGraphModel>
  </diagram>
</mxfile>
